                        WARNING: Russian audio ONLY!!!!!!!!!


After the birth of Renesmee, the Cullens gather other vampire clans in order to protect the child from a false allegation that puts the family in front of the Volturi.
 
http://www.imdb.com/title/tt1673434/

MediaInfo 0.7.61:
General
Format                                   : AVI
Format/Info                              : Audio Video Interleave
File size                                : 701 MiB
Duration                                 : 1h 44mn
Overall bit rate                         : 940 Kbps
Writing application                      : VirtualDubMod 1.5.10.2 (build 2540/release)
Writing library                          : VirtualDubMod build 2540/release

Video
ID                                       : 0
Format                                   : MPEG-4 Visual
Format profile                           : Advanced Simple@L5
Format settings, BVOP                    : 2
Format settings, QPel                    : No
Format settings, GMC                     : No warppoints
Format settings, Matrix                  : Default (MPEG)
Muxing mode                              : Packed bitstream
Codec ID                                 : XVID
Codec ID/Hint                            : XviD
Duration                                 : 1h 44mn
Bit rate                                 : 802 Kbps
Width                                    : 720 pixels
Height                                   : 272 pixels
Display aspect ratio                     : 2.647
Frame rate                               : 23.976 fps
Color space                              : YUV
Chroma subsampling                       : 4:2:0
Bit depth                                : 8 bits
Scan type                                : Progressive
Compression mode                         : Lossy
Bits/(Pixel*Frame)                       : 0.171
Stream size                              : 599 MiB (85%)
Writing library                          : XviD 73

Audio
ID                                       : 1
Format                                   : MPEG Audio
Format version                           : Version 1
Format profile                           : Layer 3
Mode                                     : Dual mono
Codec ID                                 : 55
Codec ID/Hint                            : MP3
Duration                                 : 1h 44mn
Bit rate mode                            : Constant
Bit rate                                 : 128 Kbps
Channel(s)                               : 2 channels
Sampling rate                            : 48.0 KHz
Compression mode                         : Lossy
Stream size                              : 95.5 MiB (14%)
Alignment                                : Aligned on interleaves
Interleave, duration                     : 42 ms (1.00 video frame)
Interleave, preload duration             : 504 ms


screens: 
http://img811.imageshack.us/img811/9036/grabzv.png 
http://img838.imageshack.us/img838/6702/grab2e.png 
http://img87.imageshack.us/img87/1126/grab3r.png 
http://img585.imageshack.us/img585/6310/grab4a.png 
http://img27.imageshack.us/img27/8682/grab5r.png 
http://img267.imageshack.us/img267/8770/grab6v.png 
http://img4.imageshack.us/img4/6718/grab7ge.png 
http://img641.imageshack.us/img641/7276/grab8p.png

sample:

